ffmpeg started on 2016-11-27 at 15:31:29
Report written to "Output/NVENCh264/results/ffmpeg/crowd_run_2160p50llhq14000k.log"
Command line:
Tools/ffmpeg/ffmpeg -benchmark -y -i Input/y4m/crowd_run_2160p50.y4m -c:v h264_nvenc -preset llhq -b:v 14000k -an Output/NVENCh264/encoded/crowd_run_2160p50llhq14000k.mkv
ffmpeg version N-82227-gdb23fde Copyright (c) 2000-2016 the FFmpeg developers
  built with gcc 5.4.0 (Ubuntu 5.4.0-6ubuntu1~16.04.2) 20160609
  configuration: --prefix=/home/jaroslav/ffmpeg_build --pkg-config-flags=--static --extra-cflags=-I/home/jaroslav/ffmpeg_build/include --extra-ldflags=-L/home/jaroslav/ffmpeg_build/lib --bindir=/home/jaroslav/bin --enable-gpl --enable-libass --enable-libfdk-aac --enable-libfreetype --enable-libmp3lame --enable-libopus --enable-libtheora --enable-libvorbis --enable-libvpx --enable-libx264 --enable-libx265 --enable-nvenc --enable-libmfx --enable-libxvid --enable-libgsm --enable-libopencore-amrnb --enable-version3 --enable-nonfree
  libavutil      55. 35.100 / 55. 35.100
  libavcodec     57. 66.101 / 57. 66.101
  libavformat    57. 57.100 / 57. 57.100
  libavdevice    57.  2.100 / 57.  2.100
  libavfilter     6. 66.100 /  6. 66.100
  libswscale      4.  3.100 /  4.  3.100
  libswresample   2.  4.100 /  2.  4.100
  libpostproc    54.  2.100 / 54.  2.100
Input #0, yuv4mpegpipe, from 'Input/y4m/crowd_run_2160p50.y4m':
  Duration: 00:00:10.00, start: 0.000000, bitrate: 4976642 kb/s
    Stream #0:0: Video: rawvideo (I420 / 0x30323449), yuv420p(progressive), 3840x2160, SAR 1:1 DAR 16:9, 50 fps, 50 tbr, 50 tbn, 50 tbc
[h264_nvenc @ 0x37de1c0] The variable bitrate rate-control requires the 'qmin' and/or 'qmax' option set.
Output #0, matroska, to 'Output/NVENCh264/encoded/crowd_run_2160p50llhq14000k.mkv':
  Metadata:
    encoder         : Lavf57.57.100
    Stream #0:0: Video: h264 (h264_nvenc) (Main) (H264 / 0x34363248), yuv420p, 3840x2160 [SAR 1:1 DAR 16:9], q=-1--1, 14000 kb/s, 50 fps, 1k tbn, 50 tbc
    Metadata:
      encoder         : Lavc57.66.101 h264_nvenc
    Side data:
      cpb: bitrate max/min/avg: 0/0/14000000 buffer size: 28000000 vbv_delay: -1
Stream mapping:
  Stream #0:0 -> #0:0 (rawvideo (native) -> h264 (h264_nvenc))
Press [q] to stop, [?] for help
frame=   11 fps=0.0 q=0.0 size=       0kB time=00:00:00.00 bitrate=N/A speed=   0x    frame=   21 fps= 19 q=0.0 size=       0kB time=00:00:00.00 bitrate=N/A speed=   0x    frame=   36 fps= 22 q=42.0 size=       1kB time=00:00:00.10 bitrate=  59.2kbits/s speed=0.0624x    frame=   54 fps= 25 q=41.0 size=       1kB time=00:00:00.46 bitrate=  13.0kbits/s speed=0.216x    frame=   72 fps= 27 q=41.0 size=       1kB time=00:00:00.82 bitrate=   7.3kbits/s speed=0.308x    frame=   90 fps= 28 q=40.0 size=       1kB time=00:00:01.18 bitrate=   5.1kbits/s speed=0.371x    frame=  107 fps= 29 q=41.0 size=       1kB time=00:00:01.52 bitrate=   3.9kbits/s speed=0.413x    frame=  117 fps= 23 q=40.0 size=       1kB time=00:00:01.72 bitrate=   3.5kbits/s speed=0.342x    frame=  118 fps= 13 q=40.0 size=       1kB time=00:00:01.74 bitrate=   3.4kbits/s speed=0.198x    frame=  119 fps= 10 q=41.0 size=       1kB time=00:00:01.76 bitrate=   3.4kbits/s speed=0.154x    frame=  137 fps= 11 q=40.0 size=       1kB time=00:00:02.12 bitrate=   2.8kbits/s speed=0.177x    frame=  154 fps= 12 q=40.0 size=       1kB time=00:00:02.46 bitrate=   2.4kbits/s speed=0.197x    frame=  171 fps= 13 q=41.0 size=       1kB time=00:00:02.80 bitrate=   2.1kbits/s speed=0.216x    frame=  187 fps= 14 q=41.0 size=    5129kB time=00:00:03.12 bitrate=13462.7kbits/s speed=0.231x    frame=  204 fps= 15 q=41.0 size=    5129kB time=00:00:03.46 bitrate=12140.2kbits/s speed=0.247x    frame=  221 fps= 15 q=41.0 size=    5129kB time=00:00:03.80 bitrate=11054.3kbits/s speed=0.262x    frame=  239 fps= 16 q=40.0 size=    5129kB time=00:00:04.16 bitrate=10097.9kbits/s speed=0.277x    frame=  257 fps= 17 q=40.0 size=    5129kB time=00:00:04.52 bitrate=9293.8kbits/s speed=0.291x    frame=  275 fps= 17 q=41.0 size=    5129kB time=00:00:04.88 bitrate=8608.3kbits/s speed=0.304x    frame=  292 fps= 18 q=41.0 size=    8556kB time=00:00:05.22 bitrate=13424.0kbits/s speed=0.315x    frame=  310 fps= 18 q=40.0 size=    8556kB time=00:00:05.58 bitrate=12558.1kbits/s speed=0.326x    frame=  328 fps= 19 q=41.0 size=    8556kB time=00:00:05.94 bitrate=11797.1kbits/s speed=0.337x    frame=  346 fps= 19 q=41.0 size=    8556kB time=00:00:06.30 bitrate=11123.1kbits/s speed=0.347x    frame=  364 fps= 19 q=41.0 size=    8556kB time=00:00:06.66 bitrate=10521.9kbits/s speed=0.357x    frame=  382 fps= 20 q=40.0 size=    8556kB time=00:00:07.02 bitrate=9982.4kbits/s speed=0.366x    frame=  400 fps= 20 q=40.0 size=    8556kB time=00:00:07.38 bitrate=9495.6kbits/s speed=0.375x    frame=  418 fps= 21 q=41.0 size=    8556kB time=00:00:07.74 bitrate=9054.0kbits/s speed=0.383x    frame=  431 fps= 21 q=40.0 size=   13690kB time=00:00:08.00 bitrate=14017.0kbits/s speed=0.386x    frame=  448 fps= 21 q=40.0 size=   13690kB time=00:00:08.34 bitrate=13445.6kbits/s speed=0.393x    frame=  466 fps= 21 q=40.0 size=   13690kB time=00:00:08.70 bitrate=12889.3kbits/s speed= 0.4x    frame=  484 fps= 22 q=40.0 size=   13690kB time=00:00:09.06 bitrate=12377.2kbits/s speed=0.407x    frame=  500 fps= 22 q=41.0 Lsize=   17099kB time=00:00:09.98 bitrate=14034.4kbits/s speed=0.439x    
video:17095kB audio:0kB subtitle:0kB other streams:0kB global headers:0kB muxing overhead: 0.027861%
bench: utime=1.124s
bench: maxrss=1414228kB
